<svg xmlns="http://www.w3.org/2000/svg" width="24" height="24" viewBox="0 0 24 24">
    <path fill="#1877f2" d="M429.207-17.006a12 12 0 0 0-12-11.994 12 12 0 0 0-12 11.994A11.983 11.983 0 0 0 415.34-5.161v-8.386h-3.065v-3.459h3.065v-2.643c0-3 1.78-4.669 4.524-4.669a17.23 17.23 0 0 1 2.669.247v2.928h-1.507a1.747 1.747 0 0 0-1.966 1.877v2.249h3.34l-.532 3.458h-2.808v8.387a11.962 11.962 0 0 0 10.147-11.834z" transform="translate(-405.207 29)"/>
    <path fill="#fff" d="M420.7-14.315l.532-3.459h-3.336v-2.248a1.746 1.746 0 0 1 1.964-1.877h1.508v-2.941a17.235 17.235 0 0 0-2.67-.247c-2.743 0-4.523 1.668-4.523 4.669v2.643h-3.065v3.459h3.065v8.387a11.693 11.693 0 0 0 1.866.148 11.705 11.705 0 0 0 1.866-.148v-8.387z" transform="translate(-404.027 29.78)"/>
</svg>
