<svg xmlns="http://www.w3.org/2000/svg" id="logo_tcb_header" width="200" height="84" viewBox="0 0 200 84">
    <defs>
        <style>
            .cls-1{fill:#60c0bd}.cls-2{fill:#595757}
        </style>
    </defs>
    <g id="Group_18">
        <path id="Path_122" d="M26.414 42.381V49.9l-11.357-7.519z" class="cls-1"/>
        <path id="Path_123" d="M11.921 42.381h.179l12.871 8.524h-13.05z" class="cls-1"/>
        <path id="Path_124" d="M38.664 42.381L28.049 50.11v-7.729z" class="cls-1"/>
        <path id="Path_125" d="M22.958 40.749l3.456-4.367v4.367z" class="cls-1"/>
        <path id="Path_126" d="M26.414 28.078l-6.932-3.086h6.932z" class="cls-1"/>
        <path id="Path_127" d="M14.722 23.36l4.357-3.138 4.34 3.138z" class="cls-1"/>
        <path id="Path_128" d="M20.475 19.216l3.6-2.595 2.092 6.712z" class="cls-1"/>
        <path id="Path_129" d="M19.081 18.208l-3.493-2.526h7z" class="cls-1"/>
        <path id="Path_130" d="M17.685 19.214l-5.492 3.956 1.9-6.555z" class="cls-1"/>
        <path id="Path_131" d="M11.921 33.132v-8.14h3.564v.006l10.933 4.867v3.267z" class="cls-1"/>
        <path id="Path_132" d="M19.482 34.764l-7.561 3.3v-3.3z" class="cls-1"/>
        <path id="Path_133" d="M28.049 31.777v-6.785h5.673z" class="cls-1"/>
        <path id="Path_134" d="M18.9 0l4.379 14.05h-8.447z" class="cls-1"/>
        <path id="Path_135" d="M4.613 24.992h5.673v6.785z" class="cls-1"/>
        <path id="Path_136" d="M11.921 39.848l11.621-5.075v-.009h2.074l-4.737 5.985h-8.958z" class="cls-1"/>
        <path id="Path_137" d="M10.286 42.381v7.7L0 42.381z" class="cls-1"/>
        <path id="Path_138" d="M11.588 52.538h13.858L12.108 68.084 7.4 64.849z" class="cls-1"/>
        <path id="Path_139" d="M11.038 69.33L2.5 79.287l4.358-12.832z" class="cls-1"/>
        <path id="Path_140" d="M3.08 84H.894l.238-.7.042.036 11.218-13.075 5.2 3.575z" class="cls-1"/>
        <path id="Path_141" d="M36.862 84h-1.611l-14.8-10.176 10.715-7.505z" class="cls-1"/>
        <path id="Path_142" d="M19.018 72.836l-5.556-3.821 13.506-15.743 3.677 11.42z" class="cls-1"/>
    </g>
    <g id="Group_22">
        <g id="Group_20">
            <g id="Group_19">
                <path id="Path_143" d="M71.577 34.012h-2.79v-1.993h-16.82v1.993h-2.79v-3.987h22.4zm-3.2-1.508v2.019h-.845c.845.409 1.665.818 2.458 1.278l-1.613 1.994c-.409-.256-.793-.486-1.177-.742-1.792.1-3.636.179-5.53.282V38h7.808v1.993H61.67v.507h10.215v2.1H49.177v-2.1h9.7v-.511h-7.6V38h7.6v-.537c-2.3.1-4.659.179-7.091.256l-.407-2.119c1.075 0 2.124-.026 3.148-.052.231-.178.461-.383.717-.587.154-.154.307-.281.461-.435h-3.431V32.5zm-9.5-12.267v-.511h2.793v.511h9.805v2.1H61.67v.588h8.115v1.917h-19v-1.921h8.089v-.588h-9.6v-2.1zm10.906 5.086v4.191H50.866v-4.191zm-2.816 2.3v-.409H53.683v.409zm-3.891 7.284l.358-.384h-4.4c-.205.205-.384.358-.563.512-.205.178-.41.332-.563.459 2.2-.051 4.224-.1 6.118-.153-.334-.153-.641-.281-.948-.434z" class="cls-2"/>
                <path id="Path_144" d="M78.876 27.828l-2 2.479a18.4 18.4 0 0 0-2.612-2.173l2.125-2.2a14.816 14.816 0 0 1 2.487 1.894zm.409 5.98a76.054 76.054 0 0 1-1.894 9L74.575 41.3a59.959 59.959 0 0 0 2.1-8.383zm.2-12.063l-2.022 2.479a15.189 15.189 0 0 0-2.484-2.2l2.1-2.2a15.808 15.808 0 0 1 2.411 1.921zm3.891-1.1c-.665 1.15-1.254 2.122-1.817 2.939a1.336 1.336 0 0 0 .307.256c.512-.767 1-1.534 1.408-2.3l1.894.792c-.486.767-.947 1.431-1.357 2.045l.973-.46c.307 1.047.564 2.172.794 3.4l-1.715.715a2.77 2.77 0 0 1-.052-.46 3.9 3.9 0 0 1-.537.1v4.651h-2v-4.291c-.64.1-1.28.2-1.894.281l-.308-1.891c.333-.026.64-.051.948-.1.256-.307.486-.613.742-.92-.717-.614-1.459-1.227-2.2-1.866l1.1-1.405c.128.1.256.2.41.306a26.3 26.3 0 0 0 1.408-2.606zm-2.3 8.178a16.262 16.262 0 0 1-.691 3.4l-1.715-.613a14.852 14.852 0 0 0 .717-3.092zm15.207 3.885v4.6H82.972l-.1.588H97.18c-.205 2.3-.614 3.705-1.229 4.268a3.541 3.541 0 0 1-2.381.741 12 12 0 0 1-2-.2l-.385-1.993a14.039 14.039 0 0 0 2.1.2.872.872 0 0 0 .563-.153 1.475 1.475 0 0 0 .333-.869H82.562l-.179 1.2-2.611-.485.819-5.29H93.57V34.7H80.284v-1.991zm-12.927-7.691c-.256.357-.487.664-.692.945.308-.051.589-.077.871-.128-.051-.281-.128-.562-.179-.817zm2.125 6l-1.613.384a22.912 22.912 0 0 0-.384-2.786l1.485-.307a17.436 17.436 0 0 1 .512 2.714zm9.395-10.376c-.563 1.023-1.1 1.892-1.587 2.607a3.6 3.6 0 0 0 .384.281 22.627 22.627 0 0 0 1.408-2.2l1.894.793c-.589.869-1.152 1.635-1.664 2.351l.973-.46a21.1 21.1 0 0 1 1.306 3.3l-1.716.715c-.051-.153-.076-.332-.128-.486-.256.052-.46.1-.665.128v1.03l1.587-.383a12.833 12.833 0 0 1 .922 2.914l-1.92.485a12.2 12.2 0 0 0-.589-2.683v3.3h-2v-4.326c-.742.127-1.485.23-2.2.306l-.307-1.891c.307-.026.614-.051.922-.1.358-.409.717-.844 1.049-1.252-.665-.511-1.305-1.048-1.971-1.585v.435h-5.093v-1.791h5.094v.715l.794-1.022c.153.1.281.2.409.281a24.622 24.622 0 0 0 1.2-2.274zm-4.4 7.667v3.91h-4.791v-3.91zm0-8.178v1.61h-4.688v-1.61zm-.205 4.191v1.61h-4.48v-1.61zm0 1.994v1.61h-4.48V26.32zm-1.69 4.293v-.69h-1v.69zm4.3-1.789a13.342 13.342 0 0 1-.589 2.888l-1.613-.588a14.152 14.152 0 0 0 .512-2.606zm2.019-3.802c-.282.383-.538.715-.794 1.022.41-.051.768-.1 1.126-.179-.126-.307-.232-.588-.332-.843z" class="cls-2"/>
                <path id="Path_145" d="M105.579 27.828l-2 2.479a23.289 23.289 0 0 0-3.3-2.786l2.1-2.2a17.962 17.962 0 0 1 3.2 2.507zm.614 4.881a64.6 64.6 0 0 1-2.918 10.091l-2.79-1.507a59 59 0 0 0 2.892-9.482zm1.178-10.274l-2 2.505a19.3 19.3 0 0 0-3.1-2.607l2.1-2.2a16.635 16.635 0 0 1 3 2.302zm13.722 12.088v1.789a13.141 13.141 0 0 1-3.149 3.041 32.632 32.632 0 0 0 5.248.844l-1 2.709a22.97 22.97 0 0 1-7.322-1.943 31.581 31.581 0 0 1-7.3 1.943l-1.306-2.5a36.989 36.989 0 0 0 5.863-1.1 12.905 12.905 0 0 1-2.355-2.5h-2v-2.283zm1.28-6.491v5.878h-15.284v-5.878zm-1.178-7.9v7.284h-12.9v-7.281zm-9.805 11.682v-1.686h-1.612v1.686zm7.194-8.995v-.486h-7.706v.486zm0 2.4v-.486h-7.706v.486zm-3.61 13.059a9.414 9.414 0 0 0 2.407-1.482h-4.659a11.058 11.058 0 0 0 2.252 1.484zm-1.1-6.466h1.612v-1.684h-1.612zm4.121 0h1.69v-1.684H118z" class="cls-2"/>
                <path id="Path_146" d="M135.79 20.34v-.716h2.688v.716h8.222v2.683h2v1.994h-2v2.708h-8.218v.409h8.115v1.994h-8.115v.485h9.805v2.1h-22.3v-2.1h9.8v-.485h-7.911v-1.994h7.911v-.409h-7.4v-2.2h7.4v-.511h-9.908v-1.991h9.908v-.485h-7.4v-2.2zm12.7 20.368v2.2h-22.608v-2.2zm-1.792-7.59V40.3h-18.819v-7.182zm-10.8 2.581v-.486h-5.2v.487zm0 2.5v-.587h-5.2v.588zm2.586-15.18h5.5v-.485h-5.5zm0 2.5h5.5v-.511h-5.5zm.1 10.171h5.3v-.486h-5.3zm0 2.5h5.3v-.587h-5.3z" class="cls-2"/>
                <path id="Path_147" d="M155.581 21.03v-1.3h2.714v1.3h9.088v-1.3h2.717v1.3h3.481v2.606H170.1v7.591h4.2v2.581h-4.429a8.18 8.18 0 0 0 1.127.664 16.145 16.145 0 0 0 3.584 1.329l-1.485 2.914a16.444 16.444 0 0 1-3.2-1.636v1.533h-5.607v1.278h8.192v2.71h-19.2v-2.71h8.115v-1.278h-5.709v-1.533a27.907 27.907 0 0 1-3.1 1.636l-1.511-2.4a21.484 21.484 0 0 0 3.866-1.789 10.412 10.412 0 0 0 1.178-.715h-4.532v-2.584h3.994v-7.591h-3.4V21.03zm5.811 14.87v-1.2h2.893v1.2h3.968a11.936 11.936 0 0 1-2.15-2.1h-6.349a14.92 14.92 0 0 1-2.279 2.1zm5.991-11.372v-.9h-9.088v.9zm0 3.4v-.9h-9.088v.9zm0 3.3v-.818h-9.088v.818z" class="cls-2"/>
                <path id="Path_148" d="M179.289 25.119v-5.086h2.791v5.086h2.508v2.811h-2.508v7.181c.972-.255 1.919-.511 2.816-.792l.486 2.581a60.846 60.846 0 0 1-7.783 2.4l-1-2.99c.922-.153 1.818-.358 2.688-.562V27.93h-2.406v-2.811zm19.431 9.353a2.954 2.954 0 0 1-1 1.815 2.661 2.661 0 0 1-1.434.409 5.079 5.079 0 0 1-1.69-.282l-.512-2.811a3.293 3.293 0 0 0 1.613.409c.205 0 .358-.2.461-.613.153-1.125.281-3.169.384-6.082l-2.663.894V38h-2.79v-8.869l-1.894.639V38c0 .92.332 1.406 1 1.431a8.548 8.548 0 0 0 2.355.179 19.546 19.546 0 0 0 2.816-.077 5.148 5.148 0 0 0 1.075-.179c.359-.051.615-.817.743-2.351L200 38.2a7.816 7.816 0 0 1-1.152 3.5 3.419 3.419 0 0 1-1.536.46q-2.419.229-4.762.23h-1.357a9.339 9.339 0 0 1-2.329-.256c-1.664-.051-2.483-1.073-2.483-3.041V30.69l-1.588.537-.691-2.4 2.279-.817v-6.188h2.819v5.188l1.894-.665v-6.516h2.79v5.52l5.4-1.917a83.3 83.3 0 0 1-.564 11.04z" class="cls-2"/>
            </g>
        </g>
        <g id="Group_21">
            <path id="Path_149" d="M49.819 47.739h5.695v1.93h-1.877v8.356h-1.99v-8.356h-1.828z" class="cls-2"/>
            <path id="Path_150" d="M60 47.739h1.989l3.963 10.286h-2.036l-.807-2.119H58.9l-.838 2.119h-2.033zm1.007 2.727L59.626 54h2.757z" class="cls-2"/>
            <path id="Path_151" d="M67.33 47.739h1.948v10.286H67.33z" class="cls-2"/>
            <path id="Path_152" d="M70.7 47.739h1.929l1.489 6.566 1.84-6.566h1.631l1.866 6.566 1.475-6.566h1.93l-2.319 10.286H78.66l-1.9-6.65-1.86 6.65h-1.865z" class="cls-2"/>
            <path id="Path_153" d="M87.536 47.739h1.99l3.962 10.286H91.45l-.806-2.119h-4.2l-.844 2.119h-2.037zm1.007 2.727L87.161 54h2.756z" class="cls-2"/>
            <path id="Path_154" d="M95.012 47.739h1.881l4.409 6.769v-6.769h1.961v10.286h-1.887l-4.4-6.748v6.748h-1.964z" class="cls-2"/>
            <path id="Path_155" d="M119.1 49.547l-1.372 1.305a4.252 4.252 0 0 0-3.149-1.477 3.448 3.448 0 0 0-3.5 3.493 3.664 3.664 0 0 0 .448 1.827 3.212 3.212 0 0 0 1.266 1.253 3.688 3.688 0 0 0 1.82.454 3.765 3.765 0 0 0 1.561-.318 5.575 5.575 0 0 0 1.553-1.158l1.33 1.385a7.291 7.291 0 0 1-2.157 1.542 5.9 5.9 0 0 1-2.319.43 5.34 5.34 0 0 1-3.933-1.52 5.263 5.263 0 0 1-1.53-3.9 5.328 5.328 0 0 1 .7-2.734 5.168 5.168 0 0 1 2-1.922 5.635 5.635 0 0 1 2.8-.728 5.946 5.946 0 0 1 4.49 2.067z" class="cls-2"/>
            <path id="Path_156" d="M125.68 47.48a5.121 5.121 0 0 1 3.761 1.581 5.251 5.251 0 0 1 1.573 3.852 5.2 5.2 0 0 1-1.552 3.811 5.386 5.386 0 0 1-7.622-.042 5.406 5.406 0 0 1 3.84-9.2zm-.02 1.916a3.239 3.239 0 0 0-2.406.993 3.458 3.458 0 0 0-.974 2.524 3.285 3.285 0 0 0 1.227 2.7 3.366 3.366 0 0 0 2.188.777 3.2 3.2 0 0 0 2.376-1.007 3.623 3.623 0 0 0-.007-4.968 3.223 3.223 0 0 0-2.404-1.015z" class="cls-2"/>
            <path id="Path_157" d="M133.863 47.739h1.911l2.388 7.174 2.411-7.174h1.909l1.729 10.286h-1.9l-1.1-6.5-2.188 6.5h-1.729l-2.169-6.5-1.132 6.5h-1.912z" class="cls-2"/>
            <path id="Path_158" d="M145.633 47.739h1.947v10.286h-1.947z" class="cls-2"/>
            <path id="Path_159" d="M159.256 49.547l-1.371 1.305a4.254 4.254 0 0 0-3.15-1.477 3.448 3.448 0 0 0-3.5 3.493 3.664 3.664 0 0 0 .448 1.827 3.215 3.215 0 0 0 1.267 1.253 3.684 3.684 0 0 0 1.819.454 3.759 3.759 0 0 0 1.561-.318 5.592 5.592 0 0 0 1.554-1.158l1.329 1.385a7.291 7.291 0 0 1-2.157 1.542 5.894 5.894 0 0 1-2.319.43 5.343 5.343 0 0 1-3.933-1.52 5.263 5.263 0 0 1-1.53-3.9 5.328 5.328 0 0 1 .7-2.734 5.168 5.168 0 0 1 2-1.922 5.635 5.635 0 0 1 2.8-.728 5.946 5.946 0 0 1 4.49 2.067z" class="cls-2"/>
            <path id="Path_160" d="M164.986 58.025V47.739h1.62a8.423 8.423 0 0 1 2.062.182 2.762 2.762 0 0 1 1.473.909 2.391 2.391 0 0 1 .546 1.566 2.273 2.273 0 0 1-.248 1.066 2.721 2.721 0 0 1-.809.9 3.23 3.23 0 0 1 1.373 1.1 2.787 2.787 0 0 1 .434 1.563 2.907 2.907 0 0 1-.449 1.58 2.866 2.866 0 0 1-1.157 1.067 4.456 4.456 0 0 1-1.956.353zm1.961-8.419v2.168h.429a1.6 1.6 0 0 0 1.065-.3 1.024 1.024 0 0 0 .348-.818.957.957 0 0 0-.33-.766 1.516 1.516 0 0 0-1.005-.283zm0 3.916v2.636h.492a3.043 3.043 0 0 0 1.647-.308 1.036 1.036 0 0 0 .425-.895 1.253 1.253 0 0 0-.5-1.049 2.762 2.762 0 0 0-1.657-.384z" class="cls-2"/>
            <path id="Path_161" d="M176.45 47.739h1.99l3.96 10.286h-2.038l-.806-2.119h-4.2l-.839 2.119h-2.038zm1.007 2.727L176.075 54h2.757z" class="cls-2"/>
            <path id="Path_162" d="M189.326 49.138l-1.452 1.279a2.061 2.061 0 0 0-1.558-1.063.947.947 0 0 0-.632.207.6.6 0 0 0-.245.465.8.8 0 0 0 .175.489 13.332 13.332 0 0 0 1.439 1.322q1.122.936 1.361 1.181a4.107 4.107 0 0 1 .845 1.151 2.866 2.866 0 0 1 .249 1.2 2.748 2.748 0 0 1-.876 2.09 3.2 3.2 0 0 1-2.286.825 3.405 3.405 0 0 1-1.918-.538 4.261 4.261 0 0 1-1.4-1.692l1.649-.993q.743 1.364 1.711 1.364a1.26 1.26 0 0 0 .849-.294.871.871 0 0 0 .344-.678 1.177 1.177 0 0 0-.259-.7 7.6 7.6 0 0 0-1.144-1.07A11.509 11.509 0 0 1 184 51.567a2.684 2.684 0 0 1-.491-1.486 2.429 2.429 0 0 1 .817-1.835 2.841 2.841 0 0 1 2.017-.766 3.183 3.183 0 0 1 1.469.357 5.342 5.342 0 0 1 1.514 1.301z" class="cls-2"/>
            <path id="Path_163" d="M191.386 47.739h5.624v1.916h-3.677v1.86h3.677V53.4h-3.677v2.7h3.677v1.923h-5.624z" class="cls-2"/>
        </g>
    </g>
</svg>
