<svg xmlns="http://www.w3.org/2000/svg" id="inputbox_password_show" width="18" height="18" viewBox="0 0 18 18">
    <defs>
        <style>
            .cls-2{fill:rgba(34,34,34,.5)}
        </style>
    </defs>
    <path id="Path_474" d="M9 15c-3.768 0-6.953-2.961-8.515-4.726a1.923 1.923 0 0 1 0-2.549C2.047 5.96 5.233 3 9 3s6.952 2.96 8.515 4.726a1.925 1.925 0 0 1 0 2.549C15.952 12.039 12.768 15 9 15zM9 4C5.624 4 2.685 6.75 1.233 8.388a.923.923 0 0 0 0 1.223C2.4 10.931 5.5 14 9 14c3.376 0 6.315-2.749 7.767-4.388a.925.925 0 0 0 0-1.223C15.315 6.75 12.375 4 9 4z" class="cls-2" transform="translate(-.002)"/>
    <path id="Path_475" d="M9.043 12.543a3.5 3.5 0 1 1 3.5-3.5 3.5 3.5 0 0 1-3.5 3.5zm0-6a2.5 2.5 0 1 0 2.5 2.5 2.5 2.5 0 0 0-2.5-2.5z" class="cls-2" transform="translate(-.002)"/>
</svg>
