<svg xmlns="http://www.w3.org/2000/svg" id="inputbox_password_hide" width="18" height="18" viewBox="0 0 18 18">
    <defs>
        <style>
            .cls-2{fill:rgba(34,34,34,.5)}
        </style>
    </defs>
    <path id="Path_471" d="M15.913 2.9a.5.5 0 1 0-.707-.707l-2 2A8.775 8.775 0 0 0 9 3C5.233 3 2.047 5.96.485 7.725a1.919 1.919 0 0 0 0 2.548 17.67 17.67 0 0 0 3.561 3.077l-1.84 1.84a.5.5 0 0 0 .354.853.494.494 0 0 0 .353-.146zm-9.37 6.143a2.5 2.5 0 0 1 3.888-2.078l-3.466 3.467a2.481 2.481 0 0 1-.422-1.389zm-5.31.567a.921.921 0 0 1 0-1.222C2.685 6.75 5.624 4 9 4a7.629 7.629 0 0 1 3.462.934l-1.323 1.324a3.463 3.463 0 0 0-2.1-.715 3.5 3.5 0 0 0-3.5 3.5 3.468 3.468 0 0 0 .714 2.1l-1.485 1.485A16.362 16.362 0 0 1 1.233 9.61z" class="cls-2" data-name="Path 471" transform="translate(-.001 -.044)"/>
    <path id="Path_472" d="M17.516 7.725a19.152 19.152 0 0 0-2.142-2.065.5.5 0 0 0-.635.773 18.123 18.123 0 0 1 2.028 1.955.926.926 0 0 1 0 1.223C15.316 11.25 12.376 14 9 14a6.771 6.771 0 0 1-1.936-.3.5.5 0 0 0-.285.959A7.81 7.81 0 0 0 9 15c3.768 0 6.952-2.961 8.516-4.726a1.926 1.926 0 0 0 0-2.549z" class="cls-2" data-name="Path 472" transform="translate(-.001 -.044)"/>
    <path id="Path_473" d="M12.042 8.562a.5.5 0 0 0-.5.5 2.509 2.509 0 0 1-2.483 2.483.5.5 0 0 0 0 1 3.512 3.512 0 0 0 3.477-3.477.5.5 0 0 0-.5-.5z" class="cls-2" data-name="Path 473" transform="translate(-.001 -.044)"/>
</svg>
