<svg xmlns="http://www.w3.org/2000/svg" width="24" height="24" viewBox="0 0 24 24">
    <path fill="#4285f4" d="M21.959 10.636a13.466 13.466 0 0 0-.223-2.454H10.2v4.642h6.59a5.519 5.519 0 0 1-2.443 3.622l3.956 3.011a11.584 11.584 0 0 0 3.656-8.821z" transform="translate(2.041 1.636)"/>
    <path fill="#34a853" d="M16.175 15.7a7.473 7.473 0 0 1-4.147 1.146A7.283 7.283 0 0 1 5.176 11.9l-4.091 3.109a12.268 12.268 0 0 0 10.943 6.611 11.825 11.825 0 0 0 8.1-2.908z" transform="translate(.217 2.38)"/>
    <path fill="#fbbc05" d="M5.393 8.618L1.3 5.509a11.8 11.8 0 0 0 0 10.778l4.091-3.109a6.961 6.961 0 0 1 0-4.56z" transform="translate(0 1.102)"/>
    <path fill="#ea4335" d="M12.028 0A12.263 12.263 0 0 0 1.091 6.611h-.006l4.086 3.1v-.004a7.292 7.292 0 0 1 6.852-4.933 6.639 6.639 0 0 1 4.68 1.8l3.51-3.454A11.9 11.9 0 0 0 12.028 0z" transform="translate(.217)"/>
</svg>
